<?xml version="1.0" encoding="UTF-8" standalone="no"?>
<svg
   viewBox="0 0 5.7874603 1"
   height="1"
   width="5.7874603"
   xml:space="preserve"
   id="svg2"
   version="1.1"
   sodipodi:docname="6078.svg"
   xmlns:inkscape="http://www.inkscape.org/namespaces/inkscape"
   xmlns:sodipodi="http://sodipodi.sourceforge.net/DTD/sodipodi-0.dtd"
   xmlns="http://www.w3.org/2000/svg"
   xmlns:svg="http://www.w3.org/2000/svg"
   xmlns:rdf="http://www.w3.org/1999/02/22-rdf-syntax-ns#"
   xmlns:cc="http://creativecommons.org/ns#"
   xmlns:dc="http://purl.org/dc/elements/1.1/"><sodipodi:namedview
     id="namedview1"
     pagecolor="#ffffff"
     bordercolor="#000000"
     borderopacity="0.25"
     inkscape:showpageshadow="2"
     inkscape:pageopacity="0.0"
     inkscape:pagecheckerboard="0"
     inkscape:deskcolor="#d1d1d1"
     showgrid="false"
     inkscape:export-bgcolor="#00ffff00" /><metadata
     id="metadata8"><rdf:RDF><cc:Work
         rdf:about=""><dc:format>image/svg+xml</dc:format><dc:type
           rdf:resource="http://purl.org/dc/dcmitype/StillImage" /></cc:Work></rdf:RDF></metadata><defs
     id="defs6" /><g
     transform="matrix(1.3333333,0,0,-1.3333333,-15.96241,5.4125205)"
     id="g10"><g
       transform="scale(0.1)"
       id="g12"><path
         id="path612"
         style="fill:#100f0d;fill-opacity:1;fill-rule:nonzero;stroke:none"
         d="m 162.813,38.0977 c -0.274,-0.2149 -0.704,-0.0508 -0.911,0.1836 0.118,0.2031 0.403,0.2734 0.649,0.2265 0.191,-0.0508 0.574,-0.1562 0.262,-0.4101 z m -1.446,-0.5391 c -0.222,-0.3125 -0.703,0.293 -0.887,0.6055 0.028,0 0.055,0 0.094,0 0.371,-0.0586 1.028,-0.2735 0.793,-0.6055 z m -2.871,-0.4102 c 0.137,-0.2461 0.281,-0.5937 0.227,-0.8789 -0.137,-0.789 -0.942,-0.2617 -1.211,0 -0.422,0.3907 -0.657,0.9766 -0.617,1.5508 0.019,0.2774 0.07,0.2149 0.246,0.1094 0.125,-0.0781 0.242,-0.1875 0.339,-0.293 0.254,-0.3008 0.364,-0.6445 0.411,-1.0273 0.007,-0.0938 0.144,-0.1055 0.156,0 0.027,0.5859 -0.305,1.1054 -0.762,1.4258 0.496,-0.1133 0.945,-0.4375 1.211,-0.8868 z m -4.258,1.8164 c 0.125,0.3321 0.332,0.6368 0.586,0.879 0.266,0.2343 0.574,0.4296 0.918,0.5156 0.488,0.1484 1.641,0 1.094,-0.7969 -0.383,-0.5703 -1.231,-0.957 -1.863,-1.1328 -0.118,-0.0313 -0.598,-0.1992 -0.598,0.0937 0,0.1289 0.352,0.3711 0.449,0.4414 0.321,0.2461 0.672,0.3125 1.067,0.4219 0.054,0.0156 0.047,0.1055 -0.024,0.1055 -0.484,0.0273 -1.004,-0.2461 -1.355,-0.5781 -0.117,-0.1055 -0.43,-0.418 -0.34,-0.6133 -0.039,0 -0.078,0 -0.117,0 0.086,0.2148 0.093,0.4492 0.183,0.664 z m 5.575,-1.914 c -0.067,0.0195 -0.055,0.0195 0.023,-0.0117 0.019,0 0.035,0 0.047,0.0117 -0.012,-0.0195 -0.028,-0.0195 -0.07,0 z m -34.481,-0.7813 c -0.273,-0.2617 -1.074,-0.789 -1.211,0 -0.058,0.2852 0.09,0.6328 0.234,0.8789 0.254,0.4493 0.704,0.7735 1.204,0.8868 -0.461,-0.3204 -0.786,-0.8399 -0.762,-1.4258 0.008,-0.1055 0.144,-0.0938 0.152,0 0.051,0.3828 0.156,0.7265 0.41,1.0273 0.102,0.1055 0.215,0.2149 0.344,0.293 0.176,0.1055 0.227,0.168 0.242,-0.1094 0.039,-0.5742 -0.191,-1.1601 -0.613,-1.5508 z m 1.621,3.1172 c 0.391,-0.1094 0.742,-0.1758 1.067,-0.4219 0.093,-0.0703 0.449,-0.3125 0.449,-0.4414 0,-0.2929 -0.481,-0.125 -0.598,-0.0937 -0.637,0.1758 -1.484,0.5625 -1.863,1.1328 -0.547,0.7969 0.601,0.9453 1.094,0.7969 0.339,-0.086 0.652,-0.2813 0.918,-0.5156 0.25,-0.2422 0.457,-0.5469 0.585,-0.879 0.086,-0.2148 0.094,-0.4492 0.184,-0.664 -0.039,0 -0.078,0 -0.117,0 0.09,0.1953 -0.227,0.5078 -0.344,0.6133 -0.348,0.332 -0.867,0.6054 -1.355,0.5781 -0.071,0 -0.078,-0.0899 -0.02,-0.1055 z m -3.945,-2.3476 c 0.078,0.0312 0.09,0.0312 0.019,0.0117 -0.031,-0.0195 -0.058,-0.0195 -0.066,0 0.008,-0.0117 0.027,-0.0117 0.047,-0.0117 z m -1.531,0.5195 c -0.239,0.332 0.418,0.5469 0.796,0.6055 0.032,0 0.063,0 0.09,0 -0.183,-0.3125 -0.664,-0.918 -0.886,-0.6055 z m -1.45,0.5391 c -0.316,0.2539 0.071,0.3593 0.266,0.4101 0.242,0.0469 0.527,-0.0234 0.645,-0.2265 -0.208,-0.2344 -0.633,-0.3985 -0.911,-0.1836 z m 1.575,0.8554 c 0.117,-0.0078 0.234,-0.0664 0.261,-0.1914 0.024,-0.0703 0.012,-0.1289 -0.008,-0.1875 -0.125,0.0977 -0.214,0.2266 -0.253,0.3789 z m 39.375,-0.1914 c 0.031,0.125 0.144,0.1836 0.261,0.1914 -0.039,-0.1523 -0.125,-0.2812 -0.242,-0.3789 -0.027,0.0586 -0.039,0.1172 -0.019,0.1875 z m 0.964,-0.2148 c -0.183,-0.1289 -0.144,-0.293 -0.386,-0.3047 -0.293,-0.0195 -0.61,0.0273 -0.903,0.0586 0.11,0.0117 0.207,0.0508 0.305,0.0976 0.02,-0.0078 0.039,-0.0312 0.066,-0.039 0.051,-0.0313 0.098,0.0312 0.063,0.0781 -0.012,0.0078 -0.023,0.0195 -0.031,0.0313 0.168,0.1367 0.293,0.3203 0.324,0.5351 0,0.0274 -0.012,0.0781 -0.051,0.0781 -0.195,0.0274 -0.39,-0.0507 -0.469,-0.2422 -0.039,-0.1093 -0.031,-0.2343 0.02,-0.332 -0.125,-0.0703 -0.266,-0.1015 -0.41,-0.1015 -0.031,0 -0.047,-0.0274 -0.047,-0.0547 -0.356,-0.0391 -0.703,-0.0391 -1.067,-0.0508 0.665,0.1055 1.211,0.625 1.348,1.3086 0,0.0312 -0.012,0.0859 -0.058,0.0859 -0.391,0.0625 -0.774,-0.0156 -1.106,-0.2422 -0.137,-0.0976 -0.254,-0.2148 -0.351,-0.3515 -0.145,-0.1953 -0.274,-0.6719 -0.543,-0.8008 -0.098,0 -0.2,0 -0.293,0 h -0.012 c -0.012,0.0117 -0.012,0 -0.02,0 -0.507,0 -1.015,0 -1.535,0 0.473,0.1055 0.91,0.332 1.289,0.625 0.324,0.2539 0.821,0.7305 0.5,1.1719 -0.207,0.3007 -0.691,0.2148 -0.722,-0.1875 -0.008,-0.3086 0.324,-0.4571 0.566,-0.3204 0.012,-0.0195 0.02,-0.0507 0.027,-0.0781 0,-0.0781 -0.23,-0.2812 -0.3,-0.3398 -0.196,-0.1797 -0.403,-0.3242 -0.618,-0.4492 -0.347,-0.1993 -0.73,-0.3243 -1.121,-0.4219 -0.437,0 -0.879,0 -1.308,0 0.215,0.0664 0.437,0.1445 0.644,0.2539 0.449,0.2148 0.977,0.5469 1.262,0.9648 0.203,0.2852 0.137,0.6446 -0.141,0.8711 -0.379,0.3125 -0.972,0.2149 -1.394,0.0391 -0.43,-0.1875 -0.813,-0.4883 -1.074,-0.8672 -0.223,-0.3242 -0.5,-0.8633 -0.379,-1.2617 -1.418,0 -2.844,0 -4.258,0 -1.899,0 -3.789,0 -5.688,0 -1.765,0 -3.535,0 -5.3,0 -1.895,0 -3.79,0 -5.684,0 -1.414,0 -2.844,0 -4.258,0 0.117,0.3984 -0.156,0.9375 -0.383,1.2617 -0.261,0.3789 -0.64,0.6797 -1.074,0.8672 -0.418,0.1758 -1.016,0.2734 -1.394,-0.0391 -0.274,-0.2265 -0.34,-0.5859 -0.137,-0.8711 0.293,-0.4179 0.82,-0.75 1.262,-0.9648 0.211,-0.1094 0.425,-0.1875 0.652,-0.2539 -0.441,0 -0.879,0 -1.316,0 -0.391,0.0976 -0.774,0.2226 -1.125,0.4219 -0.215,0.125 -0.418,0.2695 -0.618,0.4492 -0.066,0.0586 -0.3,0.2617 -0.293,0.3398 0,0.0274 0.012,0.0586 0.024,0.0781 0.242,-0.1367 0.574,0.0118 0.562,0.3204 -0.027,0.4023 -0.515,0.4882 -0.718,0.1875 -0.325,-0.4414 0.171,-0.918 0.503,-1.1719 0.383,-0.293 0.813,-0.5195 1.282,-0.625 -0.52,0 -1.028,0 -1.535,0 -0.008,0 -0.008,0.0117 -0.016,0 0,0 0,0 -0.012,0 -0.097,0 -0.195,0 -0.293,0 -0.273,0.1289 -0.398,0.6055 -0.547,0.8008 -0.097,0.1367 -0.214,0.2539 -0.351,0.3515 -0.332,0.2266 -0.711,0.3047 -1.106,0.2422 -0.047,0 -0.054,-0.0547 -0.054,-0.0859 0.132,-0.6836 0.679,-1.2031 1.343,-1.3086 -0.359,0.0117 -0.711,0.0117 -1.062,0.0508 0,0.0273 -0.02,0.0547 -0.051,0.0547 -0.144,0 -0.281,0.0312 -0.406,0.1015 0.055,0.0977 0.055,0.2227 0.015,0.332 -0.078,0.1915 -0.269,0.2696 -0.464,0.2422 -0.039,0 -0.051,-0.0507 -0.051,-0.0781 0.027,-0.2148 0.156,-0.3984 0.32,-0.5351 -0.008,-0.0118 -0.015,-0.0235 -0.027,-0.0313 -0.028,-0.0469 0.012,-0.1094 0.066,-0.0781 0.024,0.0078 0.039,0.0312 0.063,0.039 0.093,-0.0468 0.203,-0.0859 0.308,-0.0976 -0.3,-0.0313 -0.613,-0.0781 -0.906,-0.0586 -0.242,0.0117 -0.203,0.1758 -0.391,0.3047 -0.273,0.2031 -0.902,0.1445 -1.125,-0.1289 -0.171,-0.2149 0.094,-0.4102 0.293,-0.4883 0.317,-0.125 0.688,-0.0469 0.918,0.1953 0.012,-0.0273 0.039,-0.0508 0.071,-0.0508 0.195,0.0235 0.398,0.0313 0.593,0.0391 -0.039,-0.0156 -0.085,-0.0469 -0.125,-0.086 -0.156,-0.1289 -0.46,-0.4609 -0.312,-0.6718 0.137,-0.1992 0.469,-0.043 0.625,0.0468 0.344,0.1758 0.574,0.4571 0.723,0.8125 0.371,-0.039 0.754,-0.0507 1.125,0.0274 0.015,0 0.015,0.0195 0.007,0.0391 0.039,-0.0118 0.079,-0.0118 0.118,-0.0118 0.078,0.0118 0.097,0.0899 0.058,0.1368 -0.234,0.2851 -0.586,0.664 -0.969,0.7421 -0.039,0 -0.054,-0.0273 -0.039,-0.0546 0.239,-0.2461 0.532,-0.4102 0.774,-0.6563 -0.457,0.0469 -0.891,0.293 -1.145,0.6836 -0.054,0.0898 -0.183,0.2656 -0.164,0.3516 0.031,0.1054 0.098,0.1054 0.235,0.0976 0.254,0 0.507,-0.1289 0.711,-0.2734 0.343,-0.2539 0.382,-0.6641 0.668,-0.9375 0.039,-0.0313 0.066,-0.0586 0.093,-0.0781 -0.027,-0.0196 -0.047,-0.0508 -0.047,-0.0782 -0.3,-0.0664 -0.586,-0.2226 -0.808,-0.4492 -0.227,-0.2266 -0.5,-0.6133 -0.254,-0.918 0.152,-0.2031 0.508,-0.1875 0.555,0.1055 0.046,0.3047 -0.301,0.3164 -0.497,0.2383 0,0.0156 0.008,0.0469 0.016,0.0664 0.031,0.0781 0.078,0.1562 0.117,0.2266 0.102,0.125 0.215,0.2421 0.344,0.3398 0.164,0.125 0.352,0.2148 0.547,0.2734 0.019,-0.0195 0.059,-0.0507 0.098,-0.0507 0.363,0 0.734,0 1.093,0 -0.359,-0.125 -0.675,-0.3789 -0.91,-0.711 -0.242,-0.3594 -0.574,-1.2109 -0.113,-1.5429 0.484,-0.3516 1.211,0.2148 1.492,0.5859 0.371,0.4805 0.527,1.082 0.422,1.668 0.445,0 0.894,0 1.348,0 -0.395,-0.1368 -0.735,-0.418 -0.864,-0.8399 -0.183,-0.5625 0.168,-1.25 0.735,-1.4258 0.5,-0.1445 1.113,0.3047 0.566,0.7461 -0.144,0.1172 -0.5,0.2539 -0.676,0.125 -0.144,-0.0859 -0.132,-0.2461 -0.015,-0.3398 0.066,-0.0508 0.144,0.0273 0.086,0.0859 0.089,0.1289 0.195,0.168 0.324,0.0977 0.191,-0.4492 0.164,-0.6446 -0.102,-0.586 -0.164,-0.0195 -0.32,0.086 -0.449,0.1875 -0.269,0.2227 -0.418,0.5625 -0.379,0.918 0.07,0.5859 0.598,0.9336 1.145,1.0313 0.664,0 1.316,0 1.98,0 1.106,0 2.195,0 3.301,0 5.559,0 11.113,0 16.672,0 1.101,0 2.195,0 3.301,0 0.664,0 1.328,0 1.98,0 0.547,-0.0977 1.074,-0.4454 1.145,-1.0313 0.046,-0.3555 -0.11,-0.6953 -0.383,-0.918 -0.125,-0.1015 -0.281,-0.207 -0.449,-0.1875 -0.262,-0.0586 -0.293,0.1368 -0.086,0.586 0.117,0.0703 0.222,0.0312 0.308,-0.0977 -0.047,-0.0586 0.024,-0.1367 0.09,-0.0859 0.117,0.0937 0.125,0.2539 -0.012,0.3398 -0.183,0.1289 -0.535,-0.0078 -0.679,-0.125 -0.547,-0.4414 0.066,-0.8906 0.562,-0.7461 0.578,0.1758 0.918,0.8633 0.742,1.4258 -0.132,0.4219 -0.476,0.7031 -0.867,0.8399 0.449,0 0.899,0 1.348,0 -0.098,-0.586 0.051,-1.1875 0.422,-1.668 0.293,-0.3711 1.004,-0.9375 1.492,-0.5859 0.461,0.332 0.129,1.1835 -0.117,1.5429 -0.235,0.3321 -0.547,0.586 -0.91,0.711 0.363,0 0.734,0 1.093,0 0.051,0 0.078,0.0312 0.102,0.0507 0.191,-0.0586 0.379,-0.1484 0.547,-0.2734 0.125,-0.0977 0.242,-0.2148 0.34,-0.3398 0.039,-0.0704 0.097,-0.1485 0.117,-0.2266 0.011,-0.0195 0.019,-0.0508 0.027,-0.0664 -0.203,0.0781 -0.555,0.0664 -0.508,-0.2383 0.051,-0.293 0.403,-0.3086 0.559,-0.1055 0.242,0.3047 -0.027,0.6914 -0.254,0.918 -0.227,0.2266 -0.496,0.3828 -0.813,0.4492 0,0.0274 -0.015,0.0586 -0.046,0.0782 0.031,0.0195 0.07,0.0468 0.097,0.0781 0.293,0.2734 0.324,0.6836 0.664,0.9375 0.203,0.1445 0.457,0.2734 0.711,0.2734 0.141,0.0078 0.207,0.0078 0.239,-0.0976 0.015,-0.086 -0.11,-0.2618 -0.168,-0.3516 -0.254,-0.3906 -0.684,-0.6367 -1.141,-0.6836 0.242,0.2461 0.535,0.4102 0.769,0.6563 0.02,0.0273 0,0.0546 -0.039,0.0546 -0.378,-0.0781 -0.73,-0.457 -0.964,-0.7421 -0.039,-0.0469 -0.024,-0.125 0.054,-0.1368 0.039,0 0.078,0 0.117,0.0118 -0.007,-0.0196 -0.007,-0.0391 0.012,-0.0391 0.371,-0.0781 0.75,-0.0664 1.121,-0.0274 0.149,-0.3554 0.383,-0.6367 0.727,-0.8125 0.152,-0.0898 0.484,-0.246 0.625,-0.0468 0.144,0.2109 -0.156,0.5429 -0.317,0.6718 -0.039,0.0391 -0.086,0.0704 -0.125,0.086 0.196,-0.0078 0.403,-0.0156 0.594,-0.0391 0.031,0 0.063,0.0235 0.07,0.0508 0.235,-0.2422 0.606,-0.3203 0.926,-0.1953 0.199,0.0781 0.461,0.2734 0.285,0.4883 -0.222,0.2734 -0.847,0.332 -1.125,0.1289"
         inkscape:export-filename="divider.svg"
         inkscape:export-xdpi="96"
         inkscape:export-ydpi="96" /></g></g></svg>
